<svg width="24" height="38" viewBox="0 0 24 38" fill="none" xmlns="http://www.w3.org/2000/svg">
<g id="startLeft" clip-path="url(#clip0)">
<g id="Vector">
<path d="M2.58958 17.7407L17.1658 3.31698C17.8686 2.62155 19.0086 2.62155 19.7113 3.31698L21.4115 4.99952C22.1135 5.69421 22.1143 6.81937 21.4145 7.51554L9.86233 19.0001L21.4138 30.4855C22.1143 31.1817 22.1128 32.3068 21.4108 33.0015L19.7105 34.6841C19.0078 35.3795 17.8678 35.3795 17.1651 34.6841L2.58958 20.2596C1.88683 19.5642 1.88683 18.4361 2.58958 17.7407Z" fill="black"/>
<path d="M-21.9993 17.7407L-7.42306 3.31698C-6.72031 2.62155 -5.58031 2.62155 -4.87756 3.31698L-3.17731 4.99952C-2.47531 5.69421 -2.47456 6.81937 -3.17431 7.51554L-14.7266 19.0001L-3.17506 30.4855C-2.47456 31.1817 -2.47606 32.3068 -3.17806 33.0015L-4.87831 34.6841C-5.58106 35.3795 -6.72106 35.3795 -7.42381 34.6841L-21.9993 20.2596C-22.7021 19.5642 -22.7021 18.4361 -21.9993 17.7407Z" fill="black"/>
</g>
</g>
<defs>
<clipPath id="clip0">
<rect width="24" height="38" fill="white"/>
</clipPath>
</defs>
</svg>
