<svg width="24" height="38" viewBox="0 0 24 38" fill="none" xmlns="http://www.w3.org/2000/svg">
<g clip-path="url(#clip0)">
<path d="M21.4104 17.7407L6.83418 3.31698C6.13143 2.62155 4.99145 2.62155 4.2887 3.31698L2.58845 4.99952C1.88645 5.69421 1.8857 6.81937 2.58545 7.51554L14.1377 19.0001L2.5862 30.4855C1.8857 31.1817 1.8872 32.3068 2.5892 33.0015L4.28945 34.6841C4.9922 35.3795 6.13218 35.3795 6.83493 34.6841L21.4104 20.2596C22.1132 19.5642 22.1132 18.4361 21.4104 17.7407Z" fill="black"/>
<path d="M45.9993 17.7407L31.4231 3.31698C30.7203 2.62155 29.5803 2.62155 28.8776 3.31698L27.1773 4.99952C26.4753 5.69421 26.4746 6.81937 27.1743 7.51554L38.7266 19.0001L27.1751 30.4855C26.4746 31.1817 26.4761 32.3068 27.1781 33.0015L28.8783 34.6841C29.5811 35.3795 30.7211 35.3795 31.4238 34.6841L45.9993 20.2596C46.7021 19.5642 46.7021 18.4361 45.9993 17.7407Z" fill="black"/>
</g>
<defs>
<clipPath id="clip0">
<rect width="24" height="38" fill="white" transform="matrix(-1 0 0 1 24 0)"/>
</clipPath>
</defs>
</svg>
